PathFileType	4	(X/Y/Z)	Patient4_TMGait_0pt6_01_left_06.trc.trc
DataRate	CameraRate	NumFrames	NumMarkers	Units	OrigDataRate	OrigDataStartFrame	OrigNumFrames
83.333333333333	83.333333333333	6	33	mm	83.333333333333	71	       141
Frame#	Time	Sacral			L.Shoulder			Chest			R.Shoulder			Neck			R.ASIS			L.ASIS			R.Thigh.Superior			R.Thigh.Lateral			R.Thigh.Inferior			R.Patella			L.Thigh.Superior			L.Thigh.Lateral			L.Thigh.Inferior			L.Patella			L.Shank.Superior			L.Shank.Lateral			L.Shank.Inferior			R.Shank.Superior			R.Shank.Lateral			R.Shank.Inferior			R.Heel			R.Midfoot.Superior			R.Midfoot.Lateral			R.Toe			L.Heel			L.Midfoot.Lateral			L.Midfoot.Superior			L.Toe			L.Elbow			L.Wrist			R.Elbow			R.Wrist			
		X1	Y1	Z1	X2	Y2	Z2	X3	Y3	Z3	X4	Y4	Z4	X5	Y5	Z5	X6	Y6	Z6	X7	Y7	Z7	X8	Y8	Z8	X9	Y9	Z9	X10	Y10	Z10	X11	Y11	Z11	X12	Y12	Z12	X13	Y13	Z13	X14	Y14	Z14	X15	Y15	Z15	X16	Y16	Z16	X17	Y17	Z17	X18	Y18	Z18	X19	Y19	Z19	X20	Y20	Z20	X21	Y21	Z21	X22	Y22	Z22	X23	Y23	Z23	X24	Y24	Z24	X25	Y25	Z25	X26	Y26	Z26	X27	Y27	Z27	X28	Y28	Z28	X29	Y29	Z29	X30	Y30	Z30	X31	Y31	Z31	X32	Y32	Z32	X33	Y33	Z33	

71	8.130000000000	622.882642930956	997.729608427529	433.238831704812	795.776426494684	1426.706959330213	254.389001204339	888.127481935756	1364.167884627544	423.793494299381	790.629220668317	1439.135425687031	589.036650865518	769.495768032978	1489.877595878836	404.975508339822	842.851321824084	939.546130508823	562.996320966695	844.601778632500	958.389374667967	287.463158340486	918.698927540170	765.678200969559	535.492135340711	876.680517536708	642.616918075714	608.171557130922	966.938604354494	606.921109878363	529.233626323541	1002.199796376335	522.226957454701	547.577237834247	845.395061288032	730.145820688504	318.280803409051	727.121906342431	635.005509787596	259.579835019179	786.052004360888	543.117948915432	325.515510432487	770.596557320274	477.274635826008	336.534810388412	739.227605440103	411.556986106135	331.016043513007	638.386753369303	302.970456196711	286.733779531499	684.097099718031	191.562356964580	363.161728413855	984.538044590872	433.714092487338	554.031332950864	927.301671250833	319.496057492865	611.977974207630	996.175818371602	233.531891295233	560.689451823053	900.933342954184	48.602874785283	524.099512705707	1062.974805456603	121.125544725592	574.225190926543	981.486257541633	45.321269608773	601.823365853151	1184.608221739912	81.774307062105	605.267219736298	549.535371425141	38.793357377142	417.425742877228	620.881363902159	34.688917096760	334.542409172535	705.367026734201	95.651897492608	357.124696101560	832.137502480674	44.117113747679	326.679196267389	829.005352797660	1077.043273987515	131.730834152561	1069.439497185150	985.395596961316	147.310655509344	640.801755062540	1138.836299622056	715.374870478934	599.603964495774	884.611389980599	752.748703364386	
72	8.142000000000	624.025438640867	996.241436287484	434.263225245380	796.639747317044	1425.405072569161	255.891544204062	888.412468591546	1363.157841881879	425.665478225905	790.113234787789	1438.082866397342	590.485804017125	769.508568400780	1488.524879461585	406.432998393901	843.817006839048	938.118571262858	564.820615766670	845.943296595423	957.142486642486	289.146837092627	919.025908130141	763.498882939131	537.320728114411	875.565458285781	640.063810493642	608.676916969310	966.155427707581	604.493292152796	530.229204176615	1000.610839792840	520.387180172351	547.711065035617	844.991855895168	728.641731682736	319.527257981882	725.915187778869	634.420713019868	260.394319220676	783.821334263395	541.965550170407	326.447844444139	767.741381001315	475.982514505325	337.334519989985	735.646985437026	410.588271864975	331.615301137041	633.708425437600	303.139832944849	286.970321895216	678.018111104440	191.109478442716	363.219673055664	984.150887162682	431.786058539933	553.958840388676	927.952231977383	316.603359352359	610.885834537740	998.332111368367	231.739035752522	559.670941703380	905.084757054542	46.905607518878	521.960016855213	1066.992339208700	119.123770279836	572.438936809915	985.447860612986	43.522832704818	599.813160924290	1188.539634693848	79.615272507654	603.593134470393	542.266339401506	38.911883591583	417.246313088345	613.661384482978	34.667857976980	334.463342256632	698.192050017250	95.592790807576	357.102763636608	824.946345826443	43.846631611214	326.706074052434	829.640839263659	1075.917200396613	132.889551690708	1070.127054444023	984.478691415328	147.813551858450	637.365118918643	1139.499782756147	715.764945020751	593.566943824062	885.761990856588	753.713935367916	
73	8.154000000000	625.300409409028	994.719108858026	435.575652917816	797.414818925427	1424.095893413014	257.548457766483	888.729901147829	1362.172808647621	427.637439121184	789.658960595871	1436.949954544215	592.098849266208	769.507888026827	1487.148515271894	408.066140847925	845.063924027429	936.655795530720	566.713291211203	847.346319666951	955.883858312732	290.914785452030	919.826100786955	761.365802504560	539.177842182722	874.761343474861	637.513738924513	609.034275893999	965.790382038113	602.161043904577	531.179873866792	999.243687755736	518.350294588850	547.712304900288	844.931021510560	727.157417888075	320.762778261258	725.059700560502	633.783134563719	261.368563909415	782.090797940808	540.764432599161	327.435381542116	765.417156183131	474.555860806583	338.233990352187	732.499140211466	409.497630985568	332.317393284234	629.322655413661	303.344630737761	287.310949824952	672.074559070507	190.618748934801	363.302098380645	983.527970706439	429.531922509310	553.735061357933	927.719348512154	313.760694164236	609.689767070232	998.955199370698	229.593697687872	558.487588483604	906.456044539573	45.575557139736	519.856062103844	1068.632447570672	116.665461288813	570.410676346131	986.620494302335	41.895374654912	597.869521912134	1189.888343610704	76.395353581119	601.787050906640	534.986360889428	39.078314685906	417.019520881748	606.457881060958	34.640805797745	334.369366332884	691.045047713366	95.546955607201	357.055252892549	817.790634828075	43.525860004759	326.726363767591	830.179419761389	1074.788364245967	134.123400949087	1070.464233980811	982.704524253026	148.397803739135	634.832606586874	1139.509693340318	716.213223197401	589.022171224841	886.139174740476	754.429029447478	
74	8.166000000000	626.699085631563	993.204310479008	437.176670214030	798.085494938717	1422.816424291062	259.360709678101	889.088784834799	1361.247150294429	429.700119695852	789.291643879120	1435.763832599315	593.881882335146	769.507900617306	1485.785893866719	409.879957861769	846.590058768037	935.189229755986	568.648459476685	848.804689571205	954.647460339326	292.757954234349	921.089303863342	759.309715161673	541.016398865750	874.277250224091	635.039886658929	609.257608400769	965.826495989325	599.972896498846	532.062795119971	998.104917785878	516.169314233878	547.567031847284	845.228590550301	725.720261005117	321.979227266902	724.563934291012	633.110328440158	262.512094477557	780.887338036132	539.529637448077	328.483019188115	763.671636782491	472.999564042860	339.222104031667	729.804277037150	408.301657246443	333.123533248380	625.240164212369	303.613611884222	287.767566640303	666.279181385636	190.116407271672	363.413183403012	982.715699971455	427.023743907868	553.372736248213	926.745531361247	311.004548705867	608.483434791931	998.200487482760	227.144336053231	557.187612166666	905.295997950125	44.502537211430	517.911958101523	1068.071097275335	113.885825058839	568.222646257870	985.281607766867	40.446306628404	596.097220959322	1188.906377489825	72.424291136638	599.903835213071	527.698102940259	39.338325915875	416.743974408882	599.275822726271	34.622419828841	334.260339835084	683.944169839168	95.517912484043	356.973219702168	810.678241163290	43.153563875891	326.735760603362	830.610025750845	1073.678438409852	135.453695869351	1070.431244904839	980.086497974929	149.058232719419	633.221254327444	1138.880938164780	716.760212781546	585.998953463790	885.737972720906	754.929834330146	
75	8.178000000000	628.205488282673	991.749441879649	439.053835393835	798.643117098057	1421.615884155326	261.326798859187	889.499713129262	1360.423039422970	431.843509638220	789.040212424808	1434.566366077476	595.838243747835	769.527198282185	1484.487802347801	411.875203958566	848.376597021859	933.765029324542	570.604346405379	850.308970240464	953.478806165963	294.671424181599	922.780328523935	757.375795978547	542.790173151503	874.124061053112	632.735620700336	609.385574226461	966.225242148680	597.982381490049	532.862342777057	997.188051845327	513.917886658843	547.286822956572	845.888260510642	724.370315233224	323.184040048926	724.444930966266	632.422525578009	263.830992687185	780.250004945390	538.286452005613	329.600647634051	762.567076074281	471.326693523730	340.280842372418	727.592866656249	407.024513060481	334.029696487807	621.481695990350	303.986818803790	288.349272555535	660.656445234875	189.639829979163	363.554597633991	981.763900611243	424.369286883445	552.909470750149	925.200268607366	308.399093962063	607.371179876279	996.277897228295	224.492830069063	555.838340256902	901.969027036693	43.613731966205	516.226040644260	1065.572499854047	110.967774365454	565.990897295366	981.812125664561	39.196301016658	594.579613042900	1185.929482670661	68.070446392996	598.028216885970	520.412177106425	39.761165515445	416.422156283574	592.122448198544	34.640953801942	334.137186493627	676.918378898814	95.509846741424	356.846003120391	803.615842205650	42.730733213009	326.730576667700	830.919873417482	1072.617766439839	136.908877311473	1069.988340142254	976.642100970789	149.788277489963	632.545714051498	1137.657457718447	717.437494608474	584.523715326714	884.587007134158	755.257848667256	
76	8.190000000000	629.796286229996	990.416326845919	441.182929797720	799.087852239479	1420.554977196005	263.442159944742	889.973203024418	1359.749083938141	434.056918288248	788.935106919799	1433.413584967688	597.966930278492	769.586749868264	1483.317392549190	414.046833839280	850.387946191740	932.443859648314	572.565605699351	851.843364047731	952.433954556365	296.653974145748	924.838393612654	755.623317794279	544.457713520375	874.310823609549	630.706865180856	609.478517108070	966.926258898514	596.244172990990	533.573531672475	996.472822476322	511.688100371541	546.912715122690	846.903359642493	723.159959031677	324.399533690313	724.734602384538	631.739928125042	265.326712004946	780.239138753085	537.069186756093	330.799980537118	762.186518317384	469.557709814810	341.384251692785	725.914855696671	405.695236237011	335.024761334525	618.086661008587	304.514755004052	289.060624503792	655.248746174169	189.237022496948	363.724089716342	980.718915427713	421.701783064088	552.404953861737	923.259933225544	306.027352088084	606.458611995487	993.428570540923	221.779440352310	554.520840001329	896.914439114455	42.871817060077	514.862268172504	1061.463444023861	108.111331267246	563.850596295588	976.656654780240	38.166686294571	593.371452027711	1181.345839984941	63.709260186031	596.264117226675	513.150466484890	40.443802010802	416.060153521278	585.008333303134	34.742443970909	334.001945289392	670.009245937979	95.528873435645	356.661361102999	796.606915458290	42.260403881833	326.708884337483	831.094984959447	1071.646716160851	138.523251754021	1069.074702883649	972.393896586277	150.580879420127	632.816598047100	1135.910353180796	718.266225765182	584.620786107594	882.748006184847	755.458417751991	
